<?xml version="1.0" encoding="utf-8"?>
<!-- Generator: Adobe Illustrator 18.0.0, SVG Export Plug-In . SVG Version: 6.00 Build 0)  -->
<!DOCTYPE svg PUBLIC "-//W3C//DTD SVG 1.1//EN" "http://www.w3.org/Graphics/SVG/1.1/DTD/svg11.dtd">
<svg version="1.1" xmlns="http://www.w3.org/2000/svg" xmlns:xlink="http://www.w3.org/1999/xlink" x="0px" y="0px"
	 viewBox="684 0 664 180.4" enable-background="new 684 0 664 180.4" xml:space="preserve">
<g id="Layer_1">
</g>
<g id="Layer_2">
	<g id="Capa_4_1_">
		<g>
			<path d="M894.6,72.6c15.2,0,23.2,11.2,23.2,25.1c0,1.4-0.3,4.5-0.3,4.5h-39.1c0.5,11.8,8.9,17.7,18.4,17.7
				c9.2,0,15.9-6.3,15.9-6.3l4.2,7.5c0,0-8,7.6-20.8,7.6c-16.9,0-28.4-12.2-28.4-28.1C867.7,83.6,879.3,72.6,894.6,72.6z
				 M907.3,94.4c-0.3-9.2-6-13.7-12.9-13.7c-7.8,0-14.2,4.9-15.7,13.7H907.3z"/>
			<path d="M951,72.6c12.4,0,16.5,8.5,16.5,8.5h0.2c0,0-0.2-1.6-0.2-3.6V52.6h10.3v74.8h-9.8v-5.1c0-2.1,0.1-3.6,0.1-3.6H968
				c0,0-4.3,10-17.6,10c-14.5,0-23.6-11.4-23.6-28.1C926.8,83.6,936.8,72.6,951,72.6z M952.4,119.8c8,0,15.5-5.6,15.5-19.3
				c0-9.5-5-19.1-15.2-19.1c-8.5,0-15.5,7-15.5,19.2C937.3,112.3,943.5,119.8,952.4,119.8z"/>
			<path d="M993.9,52.6h10.4v10.5h-10.4V52.6z M994,73.8h10.3v53.6H994V73.8z"/>
			<path d="M1056,82.1h-22.6v45.4h-10.2V82.1h-6.7v-8.3h6.7V72c0-17.7,13.4-19.9,20.1-19.9c2.3,0,3.9,0.3,3.9,0.3v8.8
				c0,0-1.1-0.2-2.6-0.2c-3.9,0-11.2,1.3-11.2,11.2v1.6h32.9v53.6H1056L1056,82.1L1056,82.1z M1055.9,52.6h10.4v10.5h-10.4V52.6z"/>
			<path d="M1107.3,72.6c13.5,0,20.1,7.8,20.1,7.8l-4.9,7.2c0,0-5.7-6.1-14.8-6.1c-10.8,0-18.7,8.1-18.7,19.1
				c0,10.9,7.8,19.3,19,19.3c10,0,16.5-7.2,16.5-7.2l4.1,7.5c0,0-7.4,8.6-21.4,8.6c-16.9,0-28.7-12-28.7-28.1
				C1078.6,84.8,1090.4,72.6,1107.3,72.6z"/>
			<path d="M1168.3,94h2.3v-1c0-8.8-5-11.8-11.8-11.8c-8.3,0-14.9,5.2-14.9,5.2l-4.2-7.5c0,0,7.7-6.4,20-6.4
				c13.6,0,21.2,7.4,21.2,21v33.9h-9.5v-5.1c0-2.4,0.2-4.2,0.2-4.2h-0.2c0,0-4.3,10.6-17.2,10.6c-9.2,0-18.2-5.6-18.2-16.3
				C1136,94.7,1159.3,94,1168.3,94z M1156.5,120.5c8.7,0,14.3-9.1,14.3-17.1v-1.7h-2.7c-7.7,0-21.7,0.5-21.7,10.2
				C1146.4,116.2,1149.8,120.5,1156.5,120.5z"/>
			<path fill="#DE5235" d="M1195.7,73.1h19.9c9.9,0,17.1,6.7,17.1,17c0,10.3-7.2,17.2-17.1,17.2h-12.2v20.1h-7.6V73.1L1195.7,73.1z
				 M1214.3,100.8c6.5,0,10.5-4.1,10.5-10.6c0-6.5-4-10.4-10.5-10.4h-11.1v21L1214.3,100.8z"/>
			<path fill="#DE5235" d="M1242.4,73.1h16.6c5.7,0,8.1,0.5,10.2,1.2c5.5,2.1,9.2,7.5,9.2,14.7c0,6.9-3.8,12.8-9.8,14.7v0.2
				c0,0,0.6,0.7,1.6,2.5l11.5,21.1h-8.6l-11.5-21.6H1250v21.6h-7.6V73.1z M1261,99.2c5.9,0,9.6-3.8,9.6-9.9c0-4-1.5-6.9-4.3-8.4
				c-1.5-0.8-3.2-1.2-7.5-1.2h-8.8v19.5H1261z"/>
			<path fill="#DE5235" d="M1316,72.2c15.7,0,27.9,12.1,27.9,27.7c0,16-12.2,28.5-27.9,28.5s-27.9-12.5-27.9-28.5
				C1288.1,84.3,1300.3,72.2,1316,72.2z M1316,121.4c11.1,0,20-9.2,20-21.5c0-11.9-8.9-20.8-20-20.8c-11.1,0-20.1,8.9-20.1,20.8
				C1295.9,112.2,1304.9,121.4,1316,121.4z"/>
		</g>
	</g>
	<g id="Capa_2_1_">
		<path fill="#DE5235" d="M692.2,45.5l68.6-39.8c2-1.2,4.4-1.2,6.4,0l68.6,39.8c2,1.1,3.2,3.3,3.2,5.5v79.8c0,2.3-1.2,4.4-3.2,5.5
			l-68.6,39.8c-2,1.2-4.4,1.2-6.4,0l-68.6-39.8c-2-1.1-3.2-3.3-3.2-5.5V51.1C689,48.8,690.2,46.7,692.2,45.5z"/>
	</g>
	<g id="Capa_3_1_">
		<path fill="#FFFFFF" d="M792.6,82.2l-43.6,26l14.8,9.4l29.2-16.1l0.3,15.7l-29.1,15.4l-28.7-15.7l0.1-51.1l28.6-16.6l28.6,17
			L792.6,82.2L792.6,82.2z M778.9,75.3l-14.2-9.9l-17.1,9.4v17.7L778.9,75.3z"/>
	</g>
</g>
</svg>
